<svg width="77" height="77" viewBox="0 0 77 77" fill="none" xmlns="http://www.w3.org/2000/svg">
<path fill-rule="evenodd" clip-rule="evenodd" d="M0.585786 36.6482C-0.195263 37.4293 -0.195262 38.6956 0.585787 39.4767L36.6482 75.5391C37.4293 76.3202 38.6956 76.3202 39.4767 75.5391L75.5391 39.4767C76.3202 38.6956 76.3202 37.4293 75.5391 36.6482L39.4767 0.585786C38.6956 -0.195263 37.4293 -0.195262 36.6482 0.585787L0.585786 36.6482ZM19.4767 36.6482C18.6956 37.4293 18.6956 38.6956 19.4767 39.4767L36.6482 56.6482C37.4293 57.4293 38.6956 57.4293 39.4767 56.6482L56.6482 39.4767C57.4293 38.6956 57.4293 37.4293 56.6482 36.6482L39.4767 19.4767C38.6956 18.6956 37.4293 18.6956 36.6482 19.4767L19.4767 36.6482Z" fill="#222222"/>
</svg>
