<svg width="1000" height="1001" viewBox="0 0 1000 1001" fill="none" xmlns="http://www.w3.org/2000/svg">
<path fill-rule="evenodd" clip-rule="evenodd" d="M0 175.024C0 188.831 11.1924 200.024 25 200.024L975 200.024C988.807 200.024 1000 188.831 1000 175.024V25.024C1000 11.2169 988.808 0.0240059 975 0.0240059L25 0.0240479C11.1934 0.0240479 0 11.2169 0 25.024V175.024ZM0 975.024C0 988.831 11.1924 1000.02 25 1000.02L975 1000.02C988.807 1000.02 1000 988.831 1000 975.024V825.024C1000 811.217 988.808 800.024 975 800.024L200 800.024V600.024H575C588.807 600.024 600 588.831 600 575.024V425.024C600 411.217 588.807 400.024 575 400.024L25 400.024C11.1934 400.024 0 411.217 0 425.024V500.024V575.024V825.024V900.024V975.024Z" fill="black"/>
</svg>
