<svg width="1000" height="1001" viewBox="0 0 1000 1001" fill="none" xmlns="http://www.w3.org/2000/svg">
<path fill-rule="evenodd" clip-rule="evenodd" d="M0 25.024C0 11.2169 11.1929 0.0240173 25 0.0240173H175C188.807 0.0240173 200 11.2169 200 25.024V400.024H800V25.024C800 11.2169 811.193 0.0240173 825 0.0240173H975C988.807 0.0240173 1000 11.2169 1000 25.024V975.024C1000 988.831 988.807 1000.02 975 1000.02H825C811.193 1000.02 800 988.831 800 975.024V600.024H200V975.024C200 988.831 188.807 1000.02 175 1000.02H25C11.1929 1000.02 0 988.831 0 975.024V25.024Z" fill="black"/>
</svg>
