<svg width="1000" height="1001" viewBox="0 0 1000 1001" fill="none" xmlns="http://www.w3.org/2000/svg">
<path fill-rule="evenodd" clip-rule="evenodd" d="M641.843 441.446L641.859 441.462L500.438 582.883L200 282.445V975.024C200 988.831 188.807 1000.02 175 1000.02H25C11.1929 1000.02 0 988.831 0 975.024V25.024C0 11.2169 11.1929 0.0240173 25 0.0240173H100H175H200V0.445412L200.421 0.0240211L500.421 300.024L800 0.445297V0.0240173H800.421L800.445 -1.52588e-05L800.47 0.0240173H825H900H975C988.807 0.0240173 1000 11.2169 1000 25.024V975.024C1000 988.831 988.807 1000.02 975 1000.02H825C811.193 1000.02 800 988.831 800 975.024V283.288L641.843 441.446Z" fill="black"/>
</svg>
