<svg width="1000" height="1001" viewBox="0 0 1000 1001" fill="none" xmlns="http://www.w3.org/2000/svg">
<path fill-rule="evenodd" clip-rule="evenodd" d="M0 25.024V100.024V175.024V825.024V900.024V975.024C0 988.831 11.1929 1000.02 25 1000.02H100H175H175.017L824.947 1000.02L825 1000.02L900 1000.02L975 1000.02C988.807 1000.02 1000 988.831 1000 975.024V876.024V825.024V175.024V76.024V25.024C1000 11.2169 988.807 0.0240173 975 0.0240173L900 0.0240135L825 0.0240173L175.037 0.024044L175 0.0240173H25C11.1929 0.0240173 0 11.2169 0 25.024ZM800 200.024L200 200.024V800.024L800 800.024V200.024Z" fill="black"/>
</svg>
