<svg width="13" height="16" viewBox="0 0 13 16" fill="none" xmlns="http://www.w3.org/2000/svg">
<path fill-rule="evenodd" clip-rule="evenodd" d="M4.53198 1.00389V1.00076C4.76839 0.998823 5.07964 1.00077 5.43372 1.00454C5.68826 1.00726 5.96435 1.01093 6.24813 1.01469L6.24821 1.01469C6.67398 1.02035 7.11703 1.02623 7.53049 1.02948C7.52867 1.10129 7.52659 1.17665 7.52438 1.25244C7.51905 1.43507 7.51304 1.61794 7.50835 1.75529L7.50258 1.92111L7.50092 1.96749L7.50048 1.97965L7.50037 1.98274L7.50034 1.98351L7.50034 1.9837L7.50033 1.98374L8 2.00203L7.50033 1.98375C7.49024 2.25971 7.70576 2.4916 7.98172 2.5017C8.25768 2.51179 8.48957 2.29627 8.49967 2.02031L8 2.00203L8.49967 2.02029L8.49967 2.02023L8.49968 2.02001L8.49971 2.01919L8.49982 2.01597L8.50027 2.00356L8.50195 1.95662L8.50777 1.78939C8.51249 1.65111 8.51856 1.46647 8.52395 1.28159C8.52933 1.09729 8.5341 0.910516 8.53613 0.768854C8.53713 0.698847 8.53754 0.635381 8.53681 0.587494C8.53647 0.565176 8.53577 0.537338 8.53383 0.511284C8.53308 0.501275 8.53096 0.473608 8.52473 0.441351L8.52472 0.441267C8.52241 0.429317 8.51407 0.386173 8.49225 0.33544C8.48202 0.311661 8.45596 0.255109 8.40342 0.196982C8.34958 0.137405 8.22529 0.0322523 8.0327 0.0319752C7.49873 0.0312068 6.87073 0.0228663 6.26981 0.0148854C5.98422 0.0110924 5.70475 0.00738063 5.44439 0.00460154C5.04326 0.000319839 4.68596 -0.00175393 4.42768 0.00183827C4.30011 0.00361255 4.18775 0.00686082 4.10372 0.0128065C4.06469 0.0155676 4.01474 0.0199934 3.96758 0.0288178C3.94832 0.0324202 3.89953 0.0419483 3.84498 0.0649104C3.81948 0.0756458 3.76115 0.102078 3.70151 0.155106C3.64057 0.209289 3.53198 0.33544 3.53198 0.531982V0.537827V0.54364V0.549424V0.555177V0.560901V0.566594V0.572258V0.577892V0.583497V0.589072V0.594618V0.600135V0.605622V0.61108V0.61651V0.621911V0.627283V0.632626V0.637941V0.643228V0.648486V0.653717V0.658919V0.664093V0.66924V0.674359V0.67945V0.684514V0.689551V0.69456V0.699542V0.704497V0.709425V0.714326V0.719201V0.724049V0.728871V0.733666V0.738435V0.743177V0.747894V0.752585V0.75725V0.761889V0.766503V0.771091V0.775654V0.780191V0.784704V0.789191V0.793653V0.798091V0.802504V0.806892V0.811255V0.815595V0.81991V0.824201V0.828467V0.83271V0.836929V0.841124V0.845296V0.849444V0.853569V0.85767V0.861749V0.865804V0.869836V0.873845V0.877832V0.881796V0.885737V0.889656V0.893553V0.897428V0.90128V0.905111V0.908919V0.912706V0.916471V0.920215V0.923937V0.927638V0.931318V0.934977V0.938615V0.942231V0.945827V0.949403V0.952958V0.956492V0.960006V0.9635V0.966974V0.970428V0.973862V0.977276V0.98067V0.984045V0.987401V0.990737V0.994054V0.997352V1.00063V1.00389V1.00713V1.01035V1.01356V1.01674V1.01991V1.02306V1.02619V1.0293V1.0324V1.03547V1.03853V1.04158V1.0446V1.04761V1.0506V1.05357V1.05652V1.05946V1.06239V1.06529V1.06818V1.07105V1.07391V1.07675V1.07957V1.08238V1.08517V1.08794V1.0907V1.09345V1.09618V1.09889V1.10159V1.10427V1.10694V1.10959V1.11223V1.11485V1.11746V1.12006V1.12264V1.1252V1.12775V1.13029V1.13281V1.13532V1.13782V1.1403V1.14277V1.14523V1.14767V1.1501V1.15251V1.15492V1.15731V1.15968V1.16205V1.1644V1.16674V1.16907V1.17138V1.17369V1.17598V1.17826V1.18053V1.18278V1.18503V1.18726V1.18948V1.19169V1.19389V1.19608V1.19826V1.20042V1.20258V1.20473V1.20686V1.20899V1.2111V1.21321V1.2153V1.21739V1.21946V1.22153V1.22358V1.22563V1.22767V1.22969V1.23171V1.23372V1.23572V1.23772V1.2397V1.24167V1.24364V1.2456V1.24755V1.24949V1.25142V1.25335V1.25527V1.25718V1.25908V1.26098V1.26286V1.26475V1.26662V1.26849V1.27035V1.2722V1.27404V1.27588V1.27772V1.27954V1.28137V1.28318V1.28499V1.28679V1.28859V1.29038V1.29216V1.29394V1.29572V1.29749V1.29925V1.30101V1.30277V1.30451V1.30626V1.308V1.30974V1.31147V1.31319V1.31492V1.31663V1.31835V1.32006V1.32177V1.32347V1.32517V1.32687V1.32856V1.33025V1.33194V1.33362V1.33531V1.33698V1.33866V1.34033V1.34201V1.34367V1.34534V1.34701V1.34867V1.35033V1.35199V1.35365V1.3553V1.35696V1.35861V1.36026V1.36191V1.36356V1.36521V1.36686V1.36851V1.37016V1.3718V1.37345V1.3751V1.37674V1.37839V1.38003V1.38168V1.38333V1.38498V1.38662V1.38827V1.38992V1.39157V1.39322V1.39488V1.39653V1.39819V1.39984V1.4015V1.40316V1.40482V1.40648V1.40815V1.40982V1.41149V1.41316V1.41483V1.41651V1.41819V1.41987V1.42156V1.42325V1.42494V1.42663V1.42833V1.43003V1.43174V1.43345V1.43516V1.43688V1.4386V1.44032V1.44205V1.44378V1.44552V1.44726V1.44901V1.45076V1.45251V1.45428V1.45604V1.45781V1.45959V1.46137V1.46316V1.46495V1.46675V1.46856V1.47037V1.47218V1.47401V1.47583V1.47767V1.47951V1.48136V1.48322V1.48508V1.48695V1.48882V1.49071V1.4926V1.4945V1.4964V1.49832V1.50024V1.50217V1.5041V1.50605V1.508V1.50996V1.51193V1.51391V1.5159V1.51789V1.5199V1.52191V1.52393V1.52596V1.528V1.53005V1.53211V1.53418V1.53626V1.53835V1.54045V1.54256V1.54467V1.5468V1.54894V1.55109V1.55325V1.55542V1.5576V1.5598V1.562V1.56422V1.56644V1.56868V1.57093V1.57319V1.57546V1.57774V1.58004V1.58235V1.58467V1.587V1.58934V1.5917V1.59407V1.59645V1.59885V1.60126V1.60368V1.60611V1.60856V1.61102V1.61349V1.61598V1.61848V1.62099V1.62352V1.62607V1.62862V1.63119V1.63378V1.63638V1.63899V1.64162V1.64427V1.64692V1.6496V1.65229V1.65499V1.65771V1.66044V1.66319V1.66596V1.66874V1.67154V1.67435V1.67718V1.68003V1.68289V1.68577V1.68866V1.69157V1.6945V1.69745V1.70041V1.70339V1.70638V1.7094V1.71243V1.71547V1.71854V1.72162V1.72473V1.72785V1.73098V1.73414V1.73731V1.7405V1.74372V1.74694V1.75019V1.75346V1.75675V1.76005V1.76337V1.76672V1.77008V1.77346V1.77686V1.78029V1.78373V1.78719V1.79067V1.79417V1.79769V1.80124V1.8048V1.80838V1.81198V1.81561V1.81925V1.82292V1.82661V1.83032V1.83405V1.8378V1.84157V1.84537V1.84918V1.85302V1.85688V1.86077V1.86467V1.8686V1.87255V1.87652V1.88052V1.88453V1.88858V1.89264V1.89673V1.90084V1.90497V1.90913V1.91331V1.91751V1.92174V1.92599V1.93027V1.93457V1.93889V1.94324V1.94761V1.95201V1.95643V1.96088V1.96535V1.96985V1.97437V1.97891V1.98349V1.98808V1.99271V1.99736V2.00203C3.53198 2.27817 3.75584 2.50203 4.03198 2.50203C4.30813 2.50203 4.53198 2.27817 4.53198 2.00203V1.99736V1.99271V1.98808V1.98349V1.97891V1.97437V1.96985V1.96535V1.96088V1.95643V1.95201V1.94761V1.94324V1.93889V1.93457V1.93027V1.92599V1.92174V1.91751V1.91331V1.90913V1.90497V1.90084V1.89673V1.89264V1.88858V1.88453V1.88052V1.87652V1.87255V1.8686V1.86467V1.86077V1.85688V1.85302V1.84918V1.84537V1.84157V1.8378V1.83405V1.83032V1.82661V1.82292V1.81925V1.81561V1.81198V1.80838V1.8048V1.80124V1.79769V1.79417V1.79067V1.78719V1.78373V1.78029V1.77686V1.77346V1.77008V1.76672V1.76337V1.76005V1.75675V1.75346V1.75019V1.74694V1.74372V1.7405V1.73731V1.73414V1.73098V1.72785V1.72473V1.72162V1.71854V1.71547V1.71243V1.7094V1.70638V1.70339V1.70041V1.69745V1.6945V1.69157V1.68866V1.68577V1.68289V1.68003V1.67718V1.67435V1.67154V1.66874V1.66596V1.66319V1.66044V1.65771V1.65499V1.65229V1.6496V1.64692V1.64427V1.64162V1.63899V1.63638V1.63378V1.63119V1.62862V1.62607V1.62352V1.62099V1.61848V1.61598V1.61349V1.61102V1.60856V1.60611V1.60368V1.60126V1.59885V1.59645V1.59407V1.5917V1.58934V1.587V1.58467V1.58235V1.58004V1.57774V1.57546V1.57319V1.57093V1.56868V1.56644V1.56422V1.562V1.5598V1.5576V1.55542V1.55325V1.55109V1.54894V1.5468V1.54467V1.54256V1.54045V1.53835V1.53626V1.53418V1.53211V1.53005V1.528V1.52596V1.52393V1.52191V1.5199V1.51789V1.5159V1.51391V1.51193V1.50996V1.508V1.50605V1.5041V1.50217V1.50024V1.49832V1.4964V1.4945V1.4926V1.49071V1.48882V1.48695V1.48508V1.48322V1.48136V1.47951V1.47767V1.47583V1.47401V1.47218V1.47037V1.46856V1.46675V1.46495V1.46316V1.46137V1.45959V1.45781V1.45604V1.45428V1.45251V1.45076V1.44901V1.44726V1.44552V1.44378V1.44205V1.44032V1.4386V1.43688V1.43516V1.43345V1.43174V1.43003V1.42833V1.42663V1.42494V1.42325V1.42156V1.41987V1.41819V1.41651V1.41483V1.41316V1.41149V1.40982V1.40815V1.40648V1.40482V1.40316V1.4015V1.39984V1.39819V1.39653V1.39488V1.39322V1.39157V1.38992V1.38827V1.38662V1.38498V1.38333V1.38168V1.38003V1.37839V1.37674V1.3751V1.37345V1.3718V1.37016V1.36851V1.36686V1.36521V1.36356V1.36191V1.36026V1.35861V1.35696V1.3553V1.35365V1.35199V1.35033V1.34867V1.34701V1.34534V1.34367V1.34201V1.34033V1.33866V1.33698V1.33531V1.33362V1.33194V1.33025V1.32856V1.32687V1.32517V1.32347V1.32177V1.32006V1.31835V1.31663V1.31492V1.31319V1.31147V1.30974V1.308V1.30626V1.30451V1.30277V1.30101V1.29925V1.29749V1.29572V1.29394V1.29216V1.29038V1.28859V1.28679V1.28499V1.28318V1.28137V1.27954V1.27772V1.27588V1.27404V1.2722V1.27035V1.26849V1.26662V1.26475V1.26286V1.26098V1.25908V1.25718V1.25527V1.25335V1.25142V1.24949V1.24755V1.2456V1.24364V1.24167V1.2397V1.23772V1.23572V1.23372V1.23171V1.22969V1.22767V1.22563V1.22358V1.22153V1.21946V1.21739V1.2153V1.21321V1.2111V1.20899V1.20686V1.20473V1.20258V1.20042V1.19826V1.19608V1.19389V1.19169V1.18948V1.18726V1.18503V1.18278V1.18053V1.17826V1.17598V1.17369V1.17138V1.16907V1.16674V1.1644V1.16205V1.15968V1.15731V1.15492V1.15251V1.1501V1.14767V1.14523V1.14277V1.1403V1.13782V1.13532V1.13281V1.13029V1.12775V1.1252V1.12264V1.12006V1.11746V1.11485V1.11223V1.10959V1.10694V1.10427V1.10159V1.09889V1.09618V1.09345V1.0907V1.08794V1.08517V1.08238V1.07957V1.07675V1.07391V1.07105V1.06818V1.06529V1.06239V1.05946V1.05652V1.05357V1.0506V1.04761V1.0446V1.04158V1.03853V1.03547V1.0324V1.0293V1.02619V1.02306V1.01991V1.01674V1.01356V1.01035V1.00713V1.00389ZM12.0321 3.53173C11.988 3.75205 11.8173 3.97434 11.5439 4.18657L10.5321 13.5316C9.03206 15.5316 3.03206 15.5316 1.53206 13.5316L0.531991 4.18657C0.251906 3.9743 0.0761413 3.75199 0.032063 3.53163C-0.250204 2.12054 1.37922 1.34661 3.03198 0.940141V1.83255C1.95597 2.07981 1.1701 2.47949 1.03205 3.0316C0.532027 5.03148 11.5321 5.03172 11.0321 3.03174C10.8941 2.47956 10.1081 2.07984 9.03198 1.83256V0.940115C10.6848 1.34659 12.3143 2.12054 12.0321 3.53173ZM3.03081 5.99603C3.01114 5.72059 2.7719 5.51325 2.49646 5.53292C2.22102 5.5526 2.01368 5.79184 2.03335 6.06728L2.53335 13.0673C2.55303 13.3427 2.79227 13.5501 3.06771 13.5304C3.34315 13.5107 3.55049 13.2715 3.53081 12.996L3.03081 5.99603ZM9.56771 5.53292C9.84315 5.5526 10.0505 5.79184 10.0308 6.06728L9.53081 13.0673C9.51114 13.3427 9.2719 13.5501 8.99646 13.5304C8.72102 13.5107 8.51368 13.2715 8.53336 12.996L9.03336 5.99603C9.05303 5.72059 9.29227 5.51325 9.56771 5.53292ZM6.03208 6.03165C6.30823 6.03165 6.53208 6.25551 6.53208 6.53165V13.5317C6.53208 13.8078 6.30823 14.0317 6.03208 14.0317C5.75594 14.0317 5.53208 13.8078 5.53208 13.5317V6.53165C5.53208 6.25551 5.75594 6.03165 6.03208 6.03165Z" fill="white"/>
</svg>
