<svg width="28" height="25" viewBox="0 0 28 25" fill="none" xmlns="http://www.w3.org/2000/svg">
<path fill-rule="evenodd" clip-rule="evenodd" d="M7 1C7 0.447715 7.44772 0 8 0H9C9.55229 0 10 0.447715 10 1V3H28V5H10V7C10 7.55228 9.55228 8 9 8H8C7.44772 8 7 7.55228 7 7V5H0V3H7V1ZM0 11V13H20V15C20 15.5523 20.4477 16 21 16H22C22.5523 16 23 15.5523 23 15V13H28V11H23V9C23 8.44771 22.5523 8 22 8H21C20.4477 8 20 8.44771 20 9V11H0ZM10 20H28V22H10V24C10 24.5523 9.55228 25 9 25H8C7.44772 25 7 24.5523 7 24V22H0V20H7V18C7 17.4477 7.44772 17 8 17H9C9.55229 17 10 17.4477 10 18V20Z" fill="white"/>
</svg>
