<svg width="425" height="425" viewBox="0 0 425 425" fill="none" xmlns="http://www.w3.org/2000/svg">
<path fill-rule="evenodd" clip-rule="evenodd" d="M25 0C11.1929 0 0 11.1929 0 25V400C0 413.807 11.1929 425 25 425H226V260H171V195H226H226C226 117.497 226.002 63.0058 314 63.0058C323.167 62.8372 345 63.4 359 67V124C354.143 124 349.642 123.975 345.469 123.952C319.363 123.807 306.14 123.733 299.486 130.308C292.656 137.057 292.747 150.81 292.931 178.679C292.964 183.656 293 189.083 293 195H356L348 260H293V425H400C413.807 425 425 413.807 425 400V25C425 11.1929 413.807 0 400 0H25Z" fill="#3B5998"/>
</svg>
