<svg width="490" height="483" viewBox="0 0 490 483" fill="none" xmlns="http://www.w3.org/2000/svg">
<path fill-rule="evenodd" clip-rule="evenodd" d="M304.998 480.034C304.998 481.337 306.229 482.29 307.489 481.959C412.53 454.333 490 358.714 490 245C490 109.69 380.31 0 245 0C109.69 0 0 109.69 0 245C0 358.531 77.2218 454.026 182.006 481.826C183.267 482.16 184.5 481.206 184.5 479.902V418.422C184.5 417.166 183.329 416.226 182.092 416.445C129.322 425.789 107.005 402.285 104.499 388C101.459 370.67 86.9569 358.701 77.1801 350.633C71.2322 345.724 67.0332 342.259 68.2282 339.908C68.3739 339.621 68.6634 339.431 68.9612 339.309C92.8892 329.565 104.323 345.367 116.491 362.184C118.136 364.458 119.795 366.75 121.499 369C140.995 394.734 171.575 388.985 185.456 382.504C186.109 382.199 186.519 381.553 186.574 380.835C187.513 368.722 193.229 358.758 197.626 353.214C198.684 351.88 197.805 349.714 196.115 349.505C60.7092 332.755 82.9405 198.562 115.622 164.877C116.165 164.317 116.329 163.523 116.082 162.783C107.054 135.733 114.523 112.006 119.038 101.544C119.319 100.894 119.932 100.449 120.638 100.389C145.4 98.252 170.274 114.546 184.226 125.396C184.718 125.779 185.358 125.906 185.963 125.752C227.686 115.068 260.827 114.105 304.491 125.73C305.119 125.897 305.786 125.76 306.291 125.352C318.29 115.659 346.281 98.3303 369.576 100.888C370.163 100.952 370.68 101.278 370.981 101.787C380.516 117.931 379.518 152.114 374.244 164.017C373.852 164.903 374.016 165.929 374.731 166.583C411.188 199.985 423.144 332.839 295.759 349.297C293.833 349.545 293.022 352.411 294.369 353.81C305.38 365.241 305.275 389.851 305.064 439.604C305.032 447 304.998 454.953 304.998 463.5V480.034Z" fill="#171515"/>
</svg>
