<svg width="425" height="425" viewBox="0 0 425 425" fill="none" xmlns="http://www.w3.org/2000/svg">
<path fill-rule="evenodd" clip-rule="evenodd" d="M112 0C50.1441 0 0 50.1441 0 112V313C0 374.856 50.1441 425 112 425H313C374.856 425 425 374.856 425 313V112C425 50.1441 374.856 0 313 0H112ZM139 43C85.4284 43 42 86.4284 42 140V290C42 343.572 85.4284 387 139 387H290C343.572 387 387 343.572 387 290V140C387 86.4284 343.572 43 290 43H139ZM68 138C68 99.3401 99.3401 68 138 68H292C330.66 68 362 99.3401 362 138V292C362 330.66 330.66 362 292 362H138C99.3401 362 68 330.66 68 292V138ZM215.5 315C266.034 315 307 274.034 307 223.5C307 172.966 266.034 132 215.5 132C164.966 132 124 172.966 124 223.5C124 274.034 164.966 315 215.5 315ZM280 223.5C280 259.122 251.122 288 215.5 288C179.878 288 151 259.122 151 223.5C151 187.878 179.878 159 215.5 159C251.122 159 280 187.878 280 223.5ZM309 136C317.837 136 325 128.837 325 120C325 111.163 317.837 104 309 104C300.163 104 293 111.163 293 120C293 128.837 300.163 136 309 136Z" fill="url(#paint0_linear_234_53)"/>
<defs>
<linearGradient id="paint0_linear_234_53" x1="40" y1="387" x2="394" y2="31.5" gradientUnits="userSpaceOnUse">
<stop stop-color="#F9D801"/>
<stop offset="0.4375" stop-color="#F20718"/>
<stop offset="1" stop-color="#7B37AB"/>
</linearGradient>
</defs>
</svg>
