<svg width="464" height="455" viewBox="0 0 464 455" fill="none" xmlns="http://www.w3.org/2000/svg">
<path fill-rule="evenodd" clip-rule="evenodd" d="M0 51L271 0V455L0 403.5V51ZM79.5468 168.54C67.5201 183.06 61.5068 201.833 61.5068 224.86C61.5068 246.273 67.1535 264.533 78.4468 279.64C89.7401 294.6 107.047 302.08 130.367 302.08C152.22 301.64 169.16 294.233 181.187 279.86C193.36 265.34 199.447 246.493 199.447 223.32C199.447 201.907 193.8 183.647 182.507 168.54C171.213 153.433 153.833 145.88 130.367 145.88C108.513 146.32 91.5735 153.873 79.5468 168.54ZM100.667 263.14C94.3601 253.167 91.2068 240.333 91.2068 224.64C91.2068 207.92 94.8735 194.647 102.207 184.82C109.54 174.993 119.073 170.08 130.807 170.08C144.153 170.08 153.98 175.067 160.287 185.04C166.593 195.013 169.747 207.773 169.747 223.32C169.747 241.947 166.153 255.733 158.967 264.68C151.78 273.627 142.173 278.1 130.147 278.1C116.8 278.1 106.973 273.113 100.667 263.14Z" fill="#006EC3"/>
<path fill-rule="evenodd" clip-rule="evenodd" d="M278 341H463V140L327 249.5L278 209.688V341ZM278 192.688L327 232.5L463.134 123V113.5H278V192.688Z" fill="#D9D9D9"/>
</svg>
