<svg width="460" height="460" viewBox="0 0 460 460" fill="none" xmlns="http://www.w3.org/2000/svg">
<path fill-rule="evenodd" clip-rule="evenodd" d="M235 295C232.239 295 230 297.239 230 300V312.015L332.893 360.705L429 311.962V300C429 297.239 426.761 295 424 295H235ZM429 327.66L336.167 374.743L333.107 376.295L330.006 374.827L230 327.503V432C230 434.761 232.239 437 235 437H424C426.761 437 429 434.761 429 432V327.66Z" fill="#D9D9D9"/>
<path fill-rule="evenodd" clip-rule="evenodd" d="M297.291 450C276.007 456.502 253.412 460 230 460C102.975 460 0 357.025 0 230C0 102.975 102.975 0 230 0C357.025 0 460 102.975 460 230C460 255.709 455.782 280.433 448 303.517V292C448 288.373 446.244 285.155 443.536 283.152C447.759 266.131 450 248.327 450 230C450 108.497 351.503 10 230 10C108.497 10 10 108.497 10 230C10 348.058 102.992 444.397 219.724 449.764C220.458 449.919 221.22 450 222 450H230H297.291ZM211.001 439.152C103.924 429.55 20 339.576 20 230C20 114.02 114.02 20 230 20C345.98 20 440 114.02 440 230C440 247.589 437.838 264.673 433.764 281H381.578L388.882 258.52C389.735 255.893 388.298 253.072 385.672 252.219L362.126 244.569C362.647 239.784 362.915 234.923 362.915 230C362.915 225.077 362.647 220.216 362.126 215.432L385.672 207.781C388.298 206.928 389.735 204.107 388.882 201.481L375.285 159.634C374.432 157.008 371.611 155.571 368.985 156.424L345.45 164.071C340.599 155.588 334.84 147.69 328.306 140.511L342.865 120.473C344.488 118.238 343.993 115.112 341.759 113.488L306.162 87.6259C303.928 86.0028 300.801 86.4981 299.178 88.7321L284.639 108.744C275.863 104.777 266.581 101.736 256.915 99.7423V75C256.915 72.2386 254.676 70 251.915 70H207.915C205.153 70 202.915 72.2386 202.915 75V99.7423C193.249 101.735 183.966 104.777 175.191 108.744L160.651 88.7322C159.028 86.4981 155.902 86.0029 153.667 87.626L118.071 113.489C115.837 115.112 115.341 118.239 116.965 120.473L131.523 140.511C124.989 147.69 119.231 155.588 114.379 164.071L90.8443 156.424C88.218 155.571 85.3973 157.008 84.5439 159.634L70.9472 201.481C70.0939 204.107 71.5311 206.928 74.1574 207.781L97.7034 215.432C97.1822 220.216 96.9147 225.077 96.9147 230C96.9147 234.923 97.1822 239.784 97.7035 244.569L74.1575 252.219C71.5312 253.073 70.094 255.893 70.9473 258.52L84.544 300.366C85.3974 302.992 88.2181 304.43 90.8444 303.576L114.379 295.929C119.231 304.412 124.989 312.31 131.523 319.489L116.965 339.527C115.341 341.761 115.837 344.888 118.071 346.511L153.667 372.374C155.902 373.997 159.028 373.502 160.652 371.268L175.191 351.256C183.966 355.223 193.249 358.265 202.915 360.258V385C202.915 387.761 205.153 390 207.915 390H211V439C211 439.051 211 439.102 211.001 439.152ZM298.071 281H222C215.925 281 211 285.925 211 292V321.794C178.921 313.47 155.21 284.565 155.001 250.122H155V249.665V155H305V249.665V250.122H304.999C304.932 261.146 302.457 271.604 298.071 281Z" fill="#00618B"/>
<path fill-rule="evenodd" clip-rule="evenodd" d="M297.291 450C276.007 456.502 253.412 460 230 460C102.975 460 0 357.025 0 230C0 102.975 102.975 0 230 0C357.025 0 460 102.975 460 230C460 255.709 455.782 280.433 448 303.517V292C448 288.373 446.244 285.155 443.536 283.152C447.759 266.131 450 248.327 450 230C450 108.497 351.503 10 230 10C108.497 10 10 108.497 10 230C10 348.058 102.992 444.397 219.724 449.764C220.458 449.919 221.22 450 222 450H230H297.291ZM211.001 439.152C103.924 429.55 20 339.576 20 230C20 114.02 114.02 20 230 20C345.98 20 440 114.02 440 230C440 247.589 437.838 264.673 433.764 281H381.578L388.882 258.52C389.735 255.893 388.298 253.072 385.672 252.219L362.126 244.569C362.647 239.784 362.915 234.923 362.915 230C362.915 225.077 362.647 220.216 362.126 215.432L385.672 207.781C388.298 206.928 389.735 204.107 388.882 201.481L375.285 159.634C374.432 157.008 371.611 155.571 368.985 156.424L345.45 164.071C340.599 155.588 334.84 147.69 328.306 140.511L342.865 120.473C344.488 118.238 343.993 115.112 341.759 113.488L306.162 87.6259C303.928 86.0028 300.801 86.4981 299.178 88.7321L284.639 108.744C275.863 104.777 266.581 101.736 256.915 99.7423V75C256.915 72.2386 254.676 70 251.915 70H207.915C205.153 70 202.915 72.2386 202.915 75V99.7423C193.249 101.735 183.966 104.777 175.191 108.744L160.651 88.7322C159.028 86.4981 155.902 86.0029 153.667 87.626L118.071 113.489C115.837 115.112 115.341 118.239 116.965 120.473L131.523 140.511C124.989 147.69 119.231 155.588 114.379 164.071L90.8443 156.424C88.218 155.571 85.3973 157.008 84.5439 159.634L70.9472 201.481C70.0939 204.107 71.5311 206.928 74.1574 207.781L97.7034 215.432C97.1822 220.216 96.9147 225.077 96.9147 230C96.9147 234.923 97.1822 239.784 97.7035 244.569L74.1575 252.219C71.5312 253.073 70.094 255.893 70.9473 258.52L84.544 300.366C85.3974 302.992 88.2181 304.43 90.8444 303.576L114.379 295.929C119.231 304.412 124.989 312.31 131.523 319.489L116.965 339.527C115.341 341.761 115.837 344.888 118.071 346.511L153.667 372.374C155.902 373.997 159.028 373.502 160.652 371.268L175.191 351.256C183.966 355.223 193.249 358.265 202.915 360.258V385C202.915 387.761 205.153 390 207.915 390H211V439C211 439.051 211 439.102 211.001 439.152ZM298.071 281H222C215.925 281 211 285.925 211 292V321.794C178.921 313.47 155.21 284.565 155.001 250.122H155V249.665V155H305V249.665V250.122H304.999C304.932 261.146 302.457 271.604 298.071 281Z" fill="#00618B"/>
</svg>
