<svg width="460" height="460" viewBox="0 0 460 460" fill="none" xmlns="http://www.w3.org/2000/svg">
<path fill-rule="evenodd" clip-rule="evenodd" d="M230 460C357.025 460 460 357.025 460 230C460 102.975 357.025 0 230 0C102.975 0 0 102.975 0 230C0 357.025 102.975 460 230 460ZM202.915 75C202.915 72.2386 205.153 70 207.915 70H251.915C254.676 70 256.915 72.2386 256.915 75V99.7423C266.581 101.736 275.863 104.777 284.638 108.744L299.178 88.7321C300.801 86.4981 303.928 86.0028 306.162 87.6259L341.759 113.488C343.993 115.112 344.488 118.238 342.865 120.473L328.306 140.511C334.84 147.69 340.599 155.588 345.45 164.071L368.985 156.424C371.611 155.571 374.432 157.008 375.285 159.634L388.882 201.481C389.735 204.107 388.298 206.928 385.672 207.781L362.126 215.432C362.647 220.216 362.915 225.077 362.915 230C362.915 234.923 362.647 239.784 362.126 244.569L385.672 252.219C388.298 253.072 389.735 255.893 388.882 258.52L375.285 300.366C374.432 302.992 371.611 304.43 368.985 303.576L345.45 295.929C340.599 304.412 334.84 312.31 328.306 319.489L342.865 339.527C344.488 341.761 343.993 344.888 341.759 346.511L306.162 372.374C303.928 373.997 300.801 373.502 299.178 371.268L284.638 351.256C275.863 355.223 266.581 358.264 256.915 360.258V385C256.915 387.761 254.676 390 251.915 390H207.915C205.153 390 202.915 387.761 202.915 385V360.258C193.249 358.265 183.966 355.223 175.191 351.256L160.652 371.268C159.028 373.502 155.902 373.997 153.667 372.374L118.071 346.511C115.837 344.888 115.341 341.761 116.965 339.527L131.523 319.489C124.989 312.31 119.231 304.412 114.379 295.929L90.8444 303.576C88.2181 304.43 85.3974 302.992 84.544 300.366L70.9473 258.52C70.094 255.893 71.5312 253.073 74.1575 252.219L97.7035 244.569C97.1822 239.784 96.9147 234.923 96.9147 230C96.9147 225.077 97.1822 220.216 97.7034 215.432L74.1574 207.781C71.5311 206.928 70.0939 204.107 70.9472 201.481L84.5439 159.634C85.3973 157.008 88.218 155.571 90.8443 156.424L114.379 164.071C119.231 155.588 124.989 147.69 131.523 140.511L116.965 120.473C115.341 118.239 115.837 115.112 118.071 113.489L153.667 87.626C155.902 86.0029 159.028 86.4981 160.651 88.7322L175.191 108.744C183.966 104.777 193.249 101.735 202.915 99.7423V75ZM155 155V249.665V250.122H155.001C155.249 291.08 188.732 324.207 230 324.207C271.268 324.207 304.751 291.08 304.999 250.122H305V249.665V155H155ZM450 230C450 351.503 351.503 450 230 450C108.497 450 10 351.503 10 230C10 108.497 108.497 10 230 10C351.503 10 450 108.497 450 230ZM440 230C440 345.98 345.98 440 230 440C114.02 440 20 345.98 20 230C20 114.02 114.02 20 230 20C345.98 20 440 114.02 440 230Z" fill="#00618B"/>
</svg>
